<svg width="44" height="59" viewBox="0 0 44 59" fill="none" xmlns="http://www.w3.org/2000/svg">
<path d="M22 58.9999C21.4387 59.0041 20.8901 58.8317 20.4306 58.5067C19.9711 58.1817 19.6236 57.7203 19.4365 57.1867C16.567 49.2109 5.86349 37.2712 5.7487 37.1459L5.68175 37.0591C2.82659 33.8753 0.948879 29.9248 0.276313 25.6864C-0.396254 21.448 0.165212 17.104 1.89263 13.181C3.62005 9.25798 6.43922 5.92455 10.0083 3.58493C13.5773 1.24531 17.7429 0 22 0C26.2571 0 30.4227 1.24531 33.9917 3.58493C37.5608 5.92455 40.3799 9.25798 42.1074 13.181C43.8348 17.104 44.3963 21.448 43.7237 25.6864C43.0511 29.9248 41.1734 33.8753 38.3183 37.0591L38.2513 37.1459C38.1365 37.2712 27.433 49.2109 24.5635 57.1867C24.3776 57.7211 24.0304 58.1834 23.5706 58.5086C23.1109 58.8338 22.5616 59.0056 22 58.9999Z" fill="#547A47"/>
<path d="M42 22.2104C42 16.8503 39.8929 11.7097 36.1421 7.91949C32.3914 4.1293 27.3043 2 22 2C16.6957 2 11.6086 4.1293 7.85786 7.91949C4.10714 11.7097 2 16.8503 2 22.2104C2.00015 27.2507 3.87292 32.1073 7.24761 35.8188C7.24761 35.8188 18.2286 48.0316 21.2571 56.4526C21.311 56.6123 21.413 56.7509 21.5488 56.8491C21.6846 56.9472 21.8473 57 22.0143 57C22.1812 57 22.344 56.9472 22.4797 56.8491C22.6155 56.7509 22.7175 56.6123 22.7714 56.4526C25.8 48.0316 36.7714 35.8188 36.7714 35.8188C40.14 32.1049 42.006 27.2483 42 22.2104Z" fill="#7CD65D"/>
<path d="M13.8333 13.1667C13.2145 13.1667 12.621 13.4125 12.1834 13.8501C11.7458 14.2877 11.5 14.8812 11.5 15.5V22.5C11.5 23.1188 11.7458 23.7123 12.1834 24.1499C12.621 24.5875 13.2145 24.8333 13.8333 24.8333H16.1667C16.1667 25.7616 16.5354 26.6518 17.1918 27.3082C17.8482 27.9646 18.7384 28.3333 19.6667 28.3333C20.5949 28.3333 21.4852 27.9646 22.1415 27.3082C22.7979 26.6518 23.1667 25.7616 23.1667 24.8333H32.5V22.5H30.1667V15.5C30.1667 14.8812 29.9208 14.2877 29.4832 13.8501C29.0457 13.4125 28.4522 13.1667 27.8333 13.1667H13.8333ZM13.8333 15.5H19.6667V19H13.8333V15.5ZM23.1667 15.5H27.8333V19H23.1667V15.5ZM19.6667 23.6667C19.9761 23.6667 20.2728 23.7896 20.4916 24.0084C20.7104 24.2272 20.8333 24.5239 20.8333 24.8333C20.8333 25.1428 20.7104 25.4395 20.4916 25.6583C20.2728 25.8771 19.9761 26 19.6667 26C19.3572 26 19.0605 25.8771 18.8417 25.6583C18.6229 25.4395 18.5 25.1428 18.5 24.8333C18.5 24.5239 18.6229 24.2272 18.8417 24.0084C19.0605 23.7896 19.3572 23.6667 19.6667 23.6667Z" fill="#FAFAFA"/>
</svg>
