<svg width="44" height="59" viewBox="0 0 44 59" fill="none" xmlns="http://www.w3.org/2000/svg">
<path d="M22 58.9999C21.4387 59.0041 20.8901 58.8317 20.4306 58.5067C19.9711 58.1817 19.6236 57.7203 19.4365 57.1867C16.567 49.2109 5.86349 37.2712 5.7487 37.1459L5.68175 37.0591C2.82659 33.8753 0.948879 29.9248 0.276313 25.6864C-0.396254 21.448 0.165212 17.104 1.89263 13.181C3.62005 9.25798 6.43922 5.92455 10.0083 3.58493C13.5773 1.24531 17.7429 0 22 0C26.2571 0 30.4227 1.24531 33.9917 3.58493C37.5608 5.92455 40.3799 9.25798 42.1074 13.181C43.8348 17.104 44.3963 21.448 43.7237 25.6864C43.0511 29.9248 41.1734 33.8753 38.3183 37.0591L38.2513 37.1459C38.1365 37.2712 27.433 49.2109 24.5635 57.1867C24.3776 57.7211 24.0304 58.1834 23.5706 58.5086C23.1109 58.8338 22.5616 59.0056 22 58.9999Z" fill="#773737"/>
<path d="M42 22.2104C42 16.8503 39.8929 11.7097 36.1421 7.91949C32.3914 4.1293 27.3043 2 22 2C16.6957 2 11.6086 4.1293 7.85786 7.91949C4.10714 11.7097 2 16.8503 2 22.2104C2.00015 27.2507 3.87292 32.1073 7.24761 35.8188C7.24761 35.8188 18.2286 48.0316 21.2571 56.4526C21.311 56.6123 21.413 56.7509 21.5488 56.8491C21.6846 56.9472 21.8473 57 22.0143 57C22.1812 57 22.344 56.9472 22.4797 56.8491C22.6155 56.7509 22.7175 56.6123 22.7714 56.4526C25.8 48.0316 36.7714 35.8188 36.7714 35.8188C40.14 32.1049 42.006 27.2483 42 22.2104Z" fill="#CD563C"/>
<path d="M11.8333 17.1667C11.2145 17.1667 10.621 17.4125 10.1834 17.8501C9.74583 18.2877 9.5 18.8812 9.5 19.5V26.5C9.5 27.1188 9.74583 27.7123 10.1834 28.1499C10.621 28.5875 11.2145 28.8333 11.8333 28.8333H14.1667C14.1667 29.7616 14.5354 30.6518 15.1918 31.3082C15.8482 31.9646 16.7384 32.3333 17.6667 32.3333C18.5949 32.3333 19.4852 31.9646 20.1415 31.3082C20.7979 30.6518 21.1667 29.7616 21.1667 28.8333H30.5V26.5H28.1667V19.5C28.1667 18.8812 27.9208 18.2877 27.4832 17.8501C27.0457 17.4125 26.4522 17.1667 25.8333 17.1667H11.8333ZM11.8333 19.5H17.6667V23H11.8333V19.5ZM21.1667 19.5H25.8333V23H21.1667V19.5ZM17.6667 27.6667C17.9761 27.6667 18.2728 27.7896 18.4916 28.0084C18.7104 28.2272 18.8333 28.5239 18.8333 28.8333C18.8333 29.1428 18.7104 29.4395 18.4916 29.6583C18.2728 29.8771 17.9761 30 17.6667 30C17.3572 30 17.0605 29.8771 16.8417 29.6583C16.6229 29.4395 16.5 29.1428 16.5 28.8333C16.5 28.5239 16.6229 28.2272 16.8417 28.0084C17.0605 27.7896 17.3572 27.6667 17.6667 27.6667Z" fill="#FAFAFA"/>
<path d="M35.5297 11.4101C35.0111 10.5211 34.3013 10.0312 33.5312 10.0312H31.4688C30.6987 10.0312 29.9889 10.5211 29.4703 11.4101C28.9856 12.2407 28.7188 13.3398 28.7188 14.5C28.7188 15.6602 28.9856 16.7593 29.4703 17.5899C29.9889 18.4789 30.6987 18.9688 31.4688 18.9688H33.5312C34.3013 18.9688 35.0111 18.4789 35.5297 17.5899C36.0144 16.7593 36.2812 15.6602 36.2812 14.5C36.2812 13.3398 36.0144 12.2407 35.5297 11.4101ZM35.5847 14.1562H34.2097C34.1829 13.4509 34.0424 12.7544 33.7938 12.0938H35.1082C35.3712 12.6687 35.5448 13.3828 35.5847 14.1562ZM34.6996 11.4062H33.4651C33.3215 11.1572 33.1484 10.9263 32.9495 10.7188H33.5312C33.9609 10.7188 34.3648 10.9766 34.6996 11.4062ZM33.5312 18.2812H32.9507C33.1497 18.0737 33.3228 17.8428 33.4664 17.5938H34.7009C34.3648 18.0234 33.9609 18.2812 33.5312 18.2812ZM35.1082 16.9062H33.7942C34.0429 16.2456 34.1833 15.5491 34.2102 14.8438H35.5852C35.5448 15.6172 35.3712 16.3313 35.1082 16.9062Z" fill="#FAFAFA"/>
</svg>
