<svg width="44" height="59" viewBox="0 0 44 59" fill="none" xmlns="http://www.w3.org/2000/svg">
<path d="M22 58.9999C21.4387 59.0041 20.8901 58.8317 20.4306 58.5067C19.9711 58.1817 19.6236 57.7203 19.4365 57.1867C16.567 49.2109 5.86349 37.2712 5.7487 37.1459L5.68175 37.0591C2.82659 33.8753 0.948879 29.9248 0.276313 25.6864C-0.396254 21.448 0.165212 17.104 1.89263 13.181C3.62005 9.25798 6.43922 5.92455 10.0083 3.58493C13.5773 1.24531 17.7429 0 22 0C26.2571 0 30.4227 1.24531 33.9917 3.58493C37.5608 5.92455 40.3799 9.25798 42.1074 13.181C43.8348 17.104 44.3963 21.448 43.7237 25.6864C43.0511 29.9248 41.1734 33.8753 38.3183 37.0591L38.2513 37.1459C38.1365 37.2712 27.433 49.2109 24.5635 57.1867C24.3776 57.7211 24.0304 58.1834 23.5706 58.5086C23.1109 58.8338 22.5616 59.0056 22 58.9999Z" fill="#774637"/>
<path d="M42 22.2104C42 16.8503 39.8929 11.7097 36.1421 7.91949C32.3914 4.1293 27.3043 2 22 2C16.6957 2 11.6086 4.1293 7.85786 7.91949C4.10714 11.7097 2 16.8503 2 22.2104C2.00015 27.2507 3.87292 32.1073 7.24761 35.8188C7.24761 35.8188 18.2286 48.0316 21.2571 56.4526C21.311 56.6123 21.413 56.7509 21.5488 56.8491C21.6846 56.9472 21.8473 57 22.0143 57C22.1812 57 22.344 56.9472 22.4797 56.8491C22.6155 56.7509 22.7175 56.6123 22.7714 56.4526C25.8 48.0316 36.7714 35.8188 36.7714 35.8188C40.14 32.1049 42.006 27.2483 42 22.2104Z" fill="#CD703C"/>
<path d="M12.8333 17.1667C12.2145 17.1667 11.621 17.4125 11.1834 17.8501C10.7458 18.2877 10.5 18.8812 10.5 19.5V26.5C10.5 27.1188 10.7458 27.7123 11.1834 28.1499C11.621 28.5875 12.2145 28.8333 12.8333 28.8333H15.1667C15.1667 29.7616 15.5354 30.6518 16.1918 31.3082C16.8482 31.9646 17.7384 32.3333 18.6667 32.3333C19.5949 32.3333 20.4852 31.9646 21.1415 31.3082C21.7979 30.6518 22.1667 29.7616 22.1667 28.8333H31.5V26.5H29.1667V19.5C29.1667 18.8812 28.9208 18.2877 28.4832 17.8501C28.0457 17.4125 27.4522 17.1667 26.8333 17.1667H12.8333ZM12.8333 19.5H18.6667V23H12.8333V19.5ZM22.1667 19.5H26.8333V23H22.1667V19.5ZM18.6667 27.6667C18.9761 27.6667 19.2728 27.7896 19.4916 28.0084C19.7104 28.2272 19.8333 28.5239 19.8333 28.8333C19.8333 29.1428 19.7104 29.4395 19.4916 29.6583C19.2728 29.8771 18.9761 30 18.6667 30C18.3572 30 18.0605 29.8771 17.8417 29.6583C17.6229 29.4395 17.5 29.1428 17.5 28.8333C17.5 28.5239 17.6229 28.2272 17.8417 28.0084C18.0605 27.7896 18.3572 27.6667 18.6667 27.6667Z" fill="#FAFAFA"/>
</svg>
