<svg width="44" height="59" viewBox="0 0 44 59" fill="none" xmlns="http://www.w3.org/2000/svg">
<path d="M22 58.9999C21.4387 59.0041 20.8901 58.8317 20.4306 58.5067C19.9711 58.1817 19.6236 57.7203 19.4365 57.1867C16.567 49.2109 5.86349 37.2712 5.7487 37.1459L5.68175 37.0591C2.82659 33.8753 0.948879 29.9248 0.276313 25.6864C-0.396254 21.448 0.165212 17.104 1.89263 13.181C3.62005 9.25798 6.43922 5.92455 10.0083 3.58493C13.5773 1.24531 17.7429 0 22 0C26.2571 0 30.4227 1.24531 33.9917 3.58493C37.5608 5.92455 40.3799 9.25798 42.1074 13.181C43.8348 17.104 44.3963 21.448 43.7237 25.6864C43.0511 29.9248 41.1734 33.8753 38.3183 37.0591L38.2513 37.1459C38.1365 37.2712 27.433 49.2109 24.5635 57.1867C24.3776 57.7211 24.0304 58.1834 23.5706 58.5086C23.1109 58.8338 22.5616 59.0056 22 58.9999Z" fill="#375582"/>
<path d="M42 22.2104C42 16.8503 39.8929 11.7097 36.1421 7.91949C32.3914 4.1293 27.3043 2 22 2C16.6957 2 11.6086 4.1293 7.85786 7.91949C4.10714 11.7097 2 16.8503 2 22.2104C2.00015 27.2507 3.87292 32.1073 7.24761 35.8188C7.24761 35.8188 18.2286 48.0316 21.2571 56.4526C21.311 56.6123 21.413 56.7509 21.5488 56.8491C21.6846 56.9472 21.8473 57 22.0143 57C22.1812 57 22.344 56.9472 22.4797 56.8491C22.6155 56.7509 22.7175 56.6123 22.7714 56.4526C25.8 48.0316 36.7714 35.8188 36.7714 35.8188C40.14 32.1049 42.006 27.2483 42 22.2104Z" fill="#3C76CD"/>
<path d="M33.2 31.2667H27.6V23.8H33.2C33.3709 23.8002 33.5386 23.7535 33.6847 23.6649C33.8309 23.5764 33.9499 23.4494 34.0288 23.2979C34.1078 23.1463 34.1436 22.976 34.1324 22.8055C34.1212 22.635 34.0634 22.4709 33.9654 22.3309L29.7654 16.3333H31.3334C31.5107 16.3333 31.6844 16.2827 31.834 16.1875C31.9836 16.0923 32.103 15.9564 32.1783 15.7958C32.2535 15.6352 32.2814 15.4565 32.2587 15.2806C32.236 15.1047 32.1637 14.9389 32.0502 14.8027L27.3835 9.20267C27.2933 9.10176 27.1829 9.02104 27.0593 8.96577C26.9358 8.9105 26.802 8.88193 26.6667 8.88193C26.5314 8.88193 26.3976 8.9105 26.2741 8.96577C26.1505 9.02104 26.0401 9.10176 25.9499 9.20267L21.2832 14.8027C21.1697 14.9389 21.0974 15.1047 21.0747 15.2806C21.052 15.4565 21.0799 15.6352 21.1551 15.7958C21.2304 15.9564 21.3498 16.0923 21.4994 16.1875C21.649 16.2827 21.8227 16.3333 22 16.3333H23.568L19.368 22.3309C19.2699 22.4709 19.2122 22.635 19.201 22.8055C19.1898 22.976 19.2256 23.1463 19.3046 23.2979C19.3835 23.4494 19.5025 23.5764 19.6487 23.6649C19.7948 23.7535 19.9625 23.8002 20.1334 23.8H25.7334V31.2667H15.4667V27.5333H18.2667C18.5142 27.5333 18.7516 27.435 18.9267 27.26C19.1017 27.0849 19.2 26.8475 19.2 26.6C19.2 26.3525 19.1017 26.1151 18.9267 25.94C18.7516 25.765 18.5142 25.6667 18.2667 25.6667H10.8C10.5525 25.6667 10.3151 25.765 10.1401 25.94C9.96503 26.1151 9.8667 26.3525 9.8667 26.6C9.8667 26.8475 9.96503 27.0849 10.1401 27.26C10.3151 27.435 10.5525 27.5333 10.8 27.5333H13.6V31.2667H10.8C10.5525 31.2667 10.3151 31.365 10.1401 31.54C9.96503 31.7151 9.8667 31.9525 9.8667 32.2C9.8667 32.4475 9.96503 32.6849 10.1401 32.86C10.3151 33.035 10.5525 33.1333 10.8 33.1333H33.2C33.4476 33.1333 33.685 33.035 33.86 32.86C34.035 32.6849 34.1334 32.4475 34.1334 32.2C34.1334 31.9525 34.035 31.7151 33.86 31.54C33.685 31.365 33.4476 31.2667 33.2 31.2667Z" fill="#FAFAFA"/>
</svg>
