<svg width="44" height="59" viewBox="0 0 44 59" fill="none" xmlns="http://www.w3.org/2000/svg">
<path d="M22 58.9999C21.4387 59.0041 20.8901 58.8317 20.4306 58.5067C19.9711 58.1817 19.6236 57.7203 19.4365 57.1867C16.567 49.2109 5.86349 37.2712 5.7487 37.1459L5.68175 37.0591C2.82659 33.8753 0.948879 29.9248 0.276313 25.6864C-0.396254 21.448 0.165212 17.104 1.89263 13.181C3.62005 9.25798 6.43922 5.92455 10.0083 3.58493C13.5773 1.24531 17.7429 0 22 0C26.2571 0 30.4227 1.24531 33.9917 3.58493C37.5608 5.92455 40.3799 9.25798 42.1074 13.181C43.8348 17.104 44.3963 21.448 43.7237 25.6864C43.0511 29.9248 41.1734 33.8753 38.3183 37.0591L38.2513 37.1459C38.1365 37.2712 27.433 49.2109 24.5635 57.1867C24.3776 57.7211 24.0304 58.1834 23.5706 58.5086C23.1109 58.8338 22.5616 59.0056 22 58.9999Z" fill="#DF8A11"/>
<path d="M42 22.2104C42 16.8503 39.8929 11.7097 36.1421 7.91949C32.3914 4.1293 27.3043 2 22 2C16.6957 2 11.6086 4.1293 7.85786 7.91949C4.10714 11.7097 2 16.8503 2 22.2104C2.00015 27.2507 3.87292 32.1073 7.24761 35.8188C7.24761 35.8188 18.2286 48.0316 21.2571 56.4526C21.311 56.6123 21.413 56.7509 21.5488 56.8491C21.6846 56.9472 21.8473 57 22.0143 57C22.1812 57 22.344 56.9472 22.4797 56.8491C22.6155 56.7509 22.7175 56.6123 22.7714 56.4526C25.8 48.0316 36.7714 35.8188 36.7714 35.8188C40.14 32.1049 42.006 27.2483 42 22.2104Z" fill="#FFAB33"/>
<path d="M30.1667 15H29.21L27.2267 9.54C27.0625 9.08979 26.7642 8.70076 26.372 8.42539C25.9798 8.15001 25.5125 8.00154 25.0333 8H22V10.3333H25.0333L26.7367 15H21.125L20.705 13.8333H22V11.5H16.1667V13.8333H18.2083L20.3317 19.6667H19.55C19.0367 17.065 16.855 15.14 14.125 15.0117C10.8583 14.8483 8 17.5667 8 20.8333C8 24.1 10.5667 26.6667 13.8333 26.6667C16.7033 26.6667 19.025 24.695 19.55 22H24.45C24.9633 24.6017 27.145 26.5267 29.875 26.655C33.1417 26.8067 36 24.1 36 20.8217C36 17.5667 33.4333 15 30.1667 15ZM17.1233 22C16.6567 23.365 15.385 24.3333 13.8333 24.3333C11.8733 24.3333 10.3333 22.7933 10.3333 20.8333C10.3333 18.8733 11.8733 17.3333 13.8333 17.3333C15.385 17.3333 16.6567 18.3017 17.1233 19.6667H13.8333V22H17.1233ZM24.45 19.6667H22.8167L21.965 17.3333H25.5C24.9867 18.01 24.6133 18.7917 24.45 19.6667ZM30.1667 24.3333C28.2067 24.3333 26.6667 22.7933 26.6667 20.8333C26.6667 19.7483 27.145 18.815 27.8917 18.1733L29.0117 21.2533L31.205 20.46L30.0733 17.345C30.0967 17.345 30.1317 17.3333 30.1667 17.3333C32.1267 17.3333 33.6667 18.8733 33.6667 20.8333C33.6667 22.7933 32.1267 24.3333 30.1667 24.3333ZM20.8333 30.1667H16.1667L23.1667 33.6667V31.3333H27.8333L20.8333 27.8333V30.1667Z" fill="#FAFAFA"/>
</svg>
