<svg width="44" height="59" viewBox="0 0 44 59" fill="none" xmlns="http://www.w3.org/2000/svg">
<path d="M22 58.9999C21.4387 59.0041 20.8901 58.8317 20.4306 58.5067C19.9711 58.1817 19.6236 57.7203 19.4365 57.1867C16.567 49.2109 5.86349 37.2712 5.7487 37.1459L5.68175 37.0591C2.82659 33.8753 0.948879 29.9248 0.276313 25.6864C-0.396254 21.448 0.165212 17.104 1.89263 13.181C3.62005 9.25798 6.43922 5.92455 10.0083 3.58493C13.5773 1.24531 17.7429 0 22 0C26.2571 0 30.4227 1.24531 33.9917 3.58493C37.5608 5.92455 40.3799 9.25798 42.1074 13.181C43.8348 17.104 44.3963 21.448 43.7237 25.6864C43.0511 29.9248 41.1734 33.8753 38.3183 37.0591L38.2513 37.1459C38.1365 37.2712 27.433 49.2109 24.5635 57.1867C24.3776 57.7211 24.0304 58.1834 23.5706 58.5086C23.1109 58.8338 22.5616 59.0056 22 58.9999Z" fill="#222222"/>
<path d="M42 22.2104C42 16.8503 39.8929 11.7097 36.1421 7.91949C32.3914 4.1293 27.3043 2 22 2C16.6957 2 11.6086 4.1293 7.85786 7.91949C4.10714 11.7097 2 16.8503 2 22.2104C2.00015 27.2507 3.87292 32.1073 7.24761 35.8188C7.24761 35.8188 18.2286 48.0316 21.2571 56.4526C21.311 56.6123 21.413 56.7509 21.5488 56.8491C21.6846 56.9472 21.8473 57 22.0143 57C22.1812 57 22.344 56.9472 22.4797 56.8491C22.6155 56.7509 22.7175 56.6123 22.7714 56.4526C25.8 48.0316 36.7714 35.8188 36.7714 35.8188C40.14 32.1049 42.006 27.2483 42 22.2104Z" fill="#444444"/>
<path d="M10.3333 31.5V28C10.3333 27.7472 10.3722 27.5042 10.45 27.2708C10.5278 27.0375 10.6444 26.8139 10.8 26.6L20.5417 13.475L19.2 11.6667C19.1028 11.5306 19.0347 11.3898 18.9958 11.2443C18.9569 11.0989 18.9472 10.9531 18.9666 10.8068C18.9861 10.6606 19.0347 10.5194 19.1125 10.3833C19.1903 10.2472 19.2972 10.1306 19.4333 10.0333C19.7055 9.83889 19.9972 9.76111 20.3083 9.8C20.6194 9.83889 20.8722 9.99444 21.0667 10.2667L22 11.5208L22.9333 10.2667C23.1278 9.99444 23.3805 9.83889 23.6917 9.8C24.0028 9.76111 24.2944 9.83889 24.5667 10.0333C24.8389 10.2278 24.9944 10.4806 25.0333 10.7917C25.0722 11.1028 24.9944 11.3944 24.8 11.6667L23.4583 13.475L33.2 26.6C33.3555 26.8139 33.4722 27.0375 33.55 27.2708C33.6278 27.5042 33.6666 27.7472 33.6666 28V31.5C33.6666 31.8306 33.555 32.1078 33.3318 32.3318C33.1086 32.5558 32.8313 32.6674 32.5 32.6667H11.5C11.1694 32.6667 10.8922 32.5547 10.6682 32.3307C10.4442 32.1067 10.3325 31.8298 10.3333 31.5ZM17.5958 30.3333H26.4041L22 24.1792L17.5958 30.3333Z" fill="#FAFAFA"/>
</svg>
