<svg width="44" height="59" viewBox="0 0 44 59" fill="none" xmlns="http://www.w3.org/2000/svg">
<path d="M22 58.9999C21.4387 59.0041 20.8901 58.8317 20.4306 58.5067C19.9711 58.1817 19.6236 57.7203 19.4365 57.1867C16.567 49.2109 5.86349 37.2712 5.7487 37.1459L5.68175 37.0591C2.82659 33.8753 0.948879 29.9248 0.276313 25.6864C-0.396254 21.448 0.165212 17.104 1.89263 13.181C3.62005 9.25798 6.43922 5.92455 10.0083 3.58493C13.5773 1.24531 17.7429 0 22 0C26.2571 0 30.4227 1.24531 33.9917 3.58493C37.5608 5.92455 40.3799 9.25798 42.1074 13.181C43.8348 17.104 44.3963 21.448 43.7237 25.6864C43.0511 29.9248 41.1734 33.8753 38.3183 37.0591L38.2513 37.1459C38.1365 37.2712 27.433 49.2109 24.5635 57.1867C24.3776 57.7211 24.0304 58.1834 23.5706 58.5086C23.1109 58.8338 22.5616 59.0056 22 58.9999Z" fill="#111111"/>
<path d="M42 22.2104C42 16.8503 39.8929 11.7097 36.1421 7.91949C32.3914 4.1293 27.3043 2 22 2C16.6957 2 11.6086 4.1293 7.85786 7.91949C4.10714 11.7097 2 16.8503 2 22.2104C2.00015 27.2507 3.87292 32.1073 7.24761 35.8188C7.24761 35.8188 18.2286 48.0316 21.2571 56.4526C21.311 56.6123 21.413 56.7509 21.5488 56.8491C21.6846 56.9472 21.8473 57 22.0143 57C22.1812 57 22.344 56.9472 22.4797 56.8491C22.6155 56.7509 22.7175 56.6123 22.7714 56.4526C25.8 48.0316 36.7714 35.8188 36.7714 35.8188C40.14 32.1049 42.006 27.2483 42 22.2104Z" fill="#333333"/>
<path d="M24.5317 22.995L26.165 20.1717C26.27 19.9967 26.2234 19.775 26.0717 19.6467L24.345 18.2933C24.38 18.0367 24.4034 17.7683 24.4034 17.5C24.4034 17.2317 24.38 16.9633 24.345 16.695L26.0717 15.3417C26.2234 15.2133 26.27 14.9917 26.165 14.8167L24.5317 11.9933C24.4267 11.8183 24.2167 11.7483 24.03 11.8183L22 12.635C21.58 12.3083 21.125 12.04 20.6234 11.83L20.32 9.67167C20.3005 9.57731 20.2494 9.49242 20.1752 9.43093C20.101 9.36945 20.0081 9.33503 19.9117 9.33333H16.645C16.4467 9.33333 16.2717 9.485 16.2367 9.68333L15.9334 11.8417C15.4434 12.0517 14.9767 12.32 14.5567 12.6467L12.5267 11.83C12.34 11.76 12.13 11.83 12.025 12.005L10.3917 14.8283C10.2867 15.0033 10.3334 15.225 10.485 15.3533L12.2117 16.7067C12.1767 16.9633 12.1534 17.2317 12.1534 17.5C12.1534 17.7683 12.1767 18.0367 12.2117 18.305L10.485 19.6583C10.3334 19.7867 10.2867 20.0083 10.3917 20.1833L12.025 23.0067C12.13 23.1817 12.34 23.2517 12.5267 23.1817L14.5567 22.365C14.9767 22.6917 15.4317 22.96 15.9334 23.17L16.2367 25.3283C16.2717 25.515 16.4467 25.6667 16.645 25.6667H19.9117C20.11 25.6667 20.285 25.515 20.32 25.3167L20.6234 23.1583C21.1134 22.9483 21.58 22.68 22 22.3533L24.03 23.17C24.2167 23.24 24.4267 23.17 24.5317 22.995ZM18.2784 19.8333C16.995 19.8333 15.945 18.7833 15.945 17.5C15.945 16.2167 16.995 15.1667 18.2784 15.1667C19.5617 15.1667 20.6117 16.2167 20.6117 17.5C20.6117 18.7833 19.5617 19.8333 18.2784 19.8333ZM33.5734 28.7817L32.4534 27.9183C32.4767 27.755 32.5 27.58 32.5 27.405C32.5 27.23 32.4884 27.055 32.4534 26.8917L33.5617 26.0283C33.655 25.9467 33.69 25.8067 33.62 25.69L32.57 23.8817C32.5117 23.765 32.3717 23.73 32.2434 23.765L30.9484 24.29C30.68 24.08 30.3884 23.905 30.0617 23.7767L29.8634 22.4C29.8588 22.3376 29.8311 22.2792 29.7859 22.2361C29.7406 22.193 29.6809 22.1682 29.6184 22.1667H27.53C27.4017 22.1667 27.285 22.26 27.2734 22.3883L27.075 23.765C26.76 23.905 26.4567 24.0683 26.1884 24.2783L24.8934 23.7533C24.8339 23.731 24.7685 23.7304 24.7087 23.7518C24.6488 23.7731 24.5985 23.815 24.5667 23.87L23.5167 25.6783C23.4584 25.795 23.47 25.935 23.575 26.0167L24.6834 26.88C24.6353 27.2205 24.6353 27.5661 24.6834 27.9067L23.575 28.77C23.4817 28.8517 23.4467 28.9917 23.5167 29.1083L24.5667 30.9167C24.625 31.0333 24.765 31.0683 24.8934 31.0333L26.1884 30.5083C26.4567 30.7183 26.7484 30.8933 27.075 31.0217L27.2734 32.3983C27.2967 32.5267 27.4017 32.62 27.53 32.62H29.6184C29.7467 32.62 29.8634 32.5267 29.875 32.3983L30.0734 31.0217C30.3884 30.8817 30.6917 30.7183 30.9484 30.5083L32.255 31.0333C32.3717 31.08 32.5117 31.0333 32.5817 30.9167L33.6317 29.1083C33.7017 29.0033 33.6667 28.8633 33.5734 28.7817ZM28.5684 28.9683C28.1505 28.9682 27.7498 28.802 27.4544 28.5064C27.1591 28.2109 26.9932 27.81 26.9934 27.3922C26.9935 26.9743 27.1597 26.5736 27.4553 26.2782C27.7509 25.9829 28.1517 25.817 28.5695 25.8172C28.9874 25.8173 29.3881 25.9835 29.6835 26.2791C29.9789 26.5746 30.1447 26.9755 30.1445 27.3933C30.1444 27.8112 29.9782 28.2119 29.6827 28.5073C29.3871 28.8026 28.9862 28.9685 28.5684 28.9683Z" fill="#FAFAFA"/>
</svg>
