<svg width="44" height="59" viewBox="0 0 44 59" fill="none" xmlns="http://www.w3.org/2000/svg">
<path d="M22 58.9999C21.4387 59.0041 20.8901 58.8317 20.4306 58.5067C19.9711 58.1817 19.6236 57.7203 19.4365 57.1867C16.567 49.2109 5.86349 37.2712 5.7487 37.1459L5.68175 37.0591C2.82659 33.8753 0.948879 29.9248 0.276313 25.6864C-0.396254 21.448 0.165212 17.104 1.89263 13.181C3.62005 9.25798 6.43922 5.92455 10.0083 3.58493C13.5773 1.24531 17.7429 0 22 0C26.2571 0 30.4227 1.24531 33.9917 3.58493C37.5608 5.92455 40.3799 9.25798 42.1074 13.181C43.8348 17.104 44.3963 21.448 43.7237 25.6864C43.0511 29.9248 41.1734 33.8753 38.3183 37.0591L38.2513 37.1459C38.1365 37.2712 27.433 49.2109 24.5635 57.1867C24.3776 57.7211 24.0304 58.1834 23.5706 58.5086C23.1109 58.8338 22.5616 59.0056 22 58.9999Z" fill="#46341E"/>
<path d="M42 22.2104C42 16.8503 39.8929 11.7097 36.1421 7.91949C32.3914 4.1293 27.3043 2 22 2C16.6957 2 11.6086 4.1293 7.85786 7.91949C4.10714 11.7097 2 16.8503 2 22.2104C2.00015 27.2507 3.87292 32.1073 7.24761 35.8188C7.24761 35.8188 18.2286 48.0316 21.2571 56.4526C21.311 56.6123 21.413 56.7509 21.5488 56.8491C21.6846 56.9472 21.8473 57 22.0143 57C22.1812 57 22.344 56.9472 22.4797 56.8491C22.6155 56.7509 22.7175 56.6123 22.7714 56.4526C25.8 48.0316 36.7714 35.8188 36.7714 35.8188C40.14 32.1049 42.006 27.2483 42 22.2104Z" fill="#8B5E28"/>
<path d="M13.8334 10.6667V19.1367C11.7334 19.8833 10.3334 21.8667 10.3334 24.0833C10.3334 27 12.6667 29.3333 15.5834 29.3333C18.255 29.3333 20.495 27.3267 20.7984 24.6667H25.6984C25.57 25.04 25.5 25.4367 25.5 25.8333C25.5 26.7616 25.8688 27.6518 26.5252 28.3082C27.1815 28.9646 28.0718 29.3333 29 29.3333C29.9283 29.3333 30.8185 28.9646 31.4749 28.3082C32.1313 27.6518 32.5 26.7616 32.5 25.8333C32.5 25.4367 32.43 25.04 32.29 24.6667H33.6667V21.1667C33.6667 19.8717 32.6284 18.8333 31.3334 18.8333H25.5467L23.925 10.6667H13.8334ZM16.1667 13H22L23.1667 18.8333V22.3333H20.53C20.1976 21.4067 19.613 20.5913 18.8421 19.9791C18.0712 19.3669 17.1445 18.9822 16.1667 18.8683V13ZM15.5834 21.4583C16.2796 21.4583 16.9472 21.7349 17.4395 22.2272C17.9318 22.7195 18.2084 23.3871 18.2084 24.0833C18.2084 24.7795 17.9318 25.4472 17.4395 25.9395C16.9472 26.4318 16.2796 26.7083 15.5834 26.7083C14.8872 26.7083 14.2195 26.4318 13.7272 25.9395C13.2349 25.4472 12.9584 24.7795 12.9584 24.0833C12.9584 23.3871 13.2349 22.7195 13.7272 22.2272C14.2195 21.7349 14.8872 21.4583 15.5834 21.4583ZM29 24.0833C29.4642 24.0833 29.9093 24.2677 30.2375 24.5959C30.5657 24.9241 30.75 25.3692 30.75 25.8333C30.75 26.2975 30.5657 26.7426 30.2375 27.0708C29.9093 27.399 29.4642 27.5833 29 27.5833C28.5359 27.5833 28.0908 27.399 27.7626 27.0708C27.4344 26.7426 27.25 26.2975 27.25 25.8333C27.25 25.3692 27.4344 24.9241 27.7626 24.5959C28.0908 24.2677 28.5359 24.0833 29 24.0833Z" fill="#FAFAFA"/>
</svg>
