<svg width="44" height="59" viewBox="0 0 44 59" fill="none" xmlns="http://www.w3.org/2000/svg">
<path d="M22 58.9999C21.4387 59.0041 20.8901 58.8317 20.4306 58.5067C19.9711 58.1817 19.6236 57.7203 19.4365 57.1867C16.567 49.2109 5.86349 37.2712 5.7487 37.1459L5.68175 37.0591C2.82659 33.8753 0.948879 29.9248 0.276313 25.6864C-0.396254 21.448 0.165212 17.104 1.89263 13.181C3.62005 9.25798 6.43922 5.92455 10.0083 3.58493C13.5773 1.24531 17.7429 0 22 0C26.2571 0 30.4227 1.24531 33.9917 3.58493C37.5608 5.92455 40.3799 9.25798 42.1074 13.181C43.8348 17.104 44.3963 21.448 43.7237 25.6864C43.0511 29.9248 41.1734 33.8753 38.3183 37.0591L38.2513 37.1459C38.1365 37.2712 27.433 49.2109 24.5635 57.1867C24.3776 57.7211 24.0304 58.1834 23.5706 58.5086C23.1109 58.8338 22.5616 59.0056 22 58.9999Z" fill="#533777"/>
<path d="M42 22.2104C42 16.8503 39.8929 11.7097 36.1421 7.91949C32.3914 4.1293 27.3043 2 22 2C16.6957 2 11.6086 4.1293 7.85786 7.91949C4.10714 11.7097 2 16.8503 2 22.2104C2.00015 27.2507 3.87292 32.1073 7.24761 35.8188C7.24761 35.8188 18.2286 48.0316 21.2571 56.4526C21.311 56.6123 21.413 56.7509 21.5488 56.8491C21.6846 56.9472 21.8473 57 22.0143 57C22.1812 57 22.344 56.9472 22.4797 56.8491C22.6155 56.7509 22.7175 56.6123 22.7714 56.4526C25.8 48.0316 36.7714 35.8188 36.7714 35.8188C40.14 32.1049 42.006 27.2483 42 22.2104Z" fill="#7C3CCD"/>
<g clip-path="url(#clip0_6_15)">
<path d="M22 9.33333C28.4435 9.33333 33.6666 14.5565 33.6666 21C33.6666 27.4435 28.4435 32.6667 22 32.6667C15.5565 32.6667 10.3333 27.4435 10.3333 21C10.3333 14.5565 15.5565 9.33333 22 9.33333ZM23.75 15.1667H20.8333C20.2145 15.1667 19.621 15.4125 19.1834 15.8501C18.7458 16.2877 18.5 16.8812 18.5 17.5V25.6667C18.5 25.9761 18.6229 26.2728 18.8417 26.4916C19.0605 26.7104 19.3572 26.8333 19.6666 26.8333C19.9761 26.8333 20.2728 26.7104 20.4916 26.4916C20.7104 26.2728 20.8333 25.9761 20.8333 25.6667V23.3333H23.75C24.8329 23.3333 25.8716 22.9031 26.6373 22.1374C27.4031 21.3716 27.8333 20.333 27.8333 19.25C27.8333 18.167 27.4031 17.1284 26.6373 16.3626C25.8716 15.5969 24.8329 15.1667 23.75 15.1667ZM23.75 17.5C24.2141 17.5 24.6592 17.6844 24.9874 18.0126C25.3156 18.3408 25.5 18.7859 25.5 19.25C25.5 19.7141 25.3156 20.1592 24.9874 20.4874C24.6592 20.8156 24.2141 21 23.75 21H20.8333V17.5H23.75Z" fill="#FAFAFA"/>
</g>
<defs>
<clipPath id="clip0_6_15">
<rect width="28" height="28" fill="white" transform="translate(8 7)"/>
</clipPath>
</defs>
</svg>
