<svg width="44" height="59" viewBox="0 0 44 59" fill="none" xmlns="http://www.w3.org/2000/svg">
<path d="M22 58.9999C21.4387 59.0041 20.8901 58.8317 20.4306 58.5067C19.9711 58.1817 19.6236 57.7203 19.4365 57.1867C16.567 49.2109 5.86349 37.2712 5.7487 37.1459L5.68175 37.0591C2.82659 33.8753 0.948879 29.9248 0.276313 25.6864C-0.396254 21.448 0.165212 17.104 1.89263 13.181C3.62005 9.25798 6.43922 5.92455 10.0083 3.58493C13.5773 1.24531 17.7429 0 22 0C26.2571 0 30.4227 1.24531 33.9917 3.58493C37.5608 5.92455 40.3799 9.25798 42.1074 13.181C43.8348 17.104 44.3963 21.448 43.7237 25.6864C43.0511 29.9248 41.1734 33.8753 38.3183 37.0591L38.2513 37.1459C38.1365 37.2712 27.433 49.2109 24.5635 57.1867C24.3776 57.7211 24.0304 58.1834 23.5706 58.5086C23.1109 58.8338 22.5616 59.0056 22 58.9999Z" fill="#2E2D6D"/>
<path d="M42 22.2104C42 16.8503 39.8929 11.7097 36.1421 7.91949C32.3914 4.1293 27.3043 2 22 2C16.6957 2 11.6086 4.1293 7.85786 7.91949C4.10714 11.7097 2 16.8503 2 22.2104C2.00015 27.2507 3.87292 32.1073 7.24761 35.8188C7.24761 35.8188 18.2286 48.0316 21.2571 56.4526C21.311 56.6123 21.413 56.7509 21.5488 56.8491C21.6846 56.9472 21.8473 57 22.0143 57C22.1812 57 22.344 56.9472 22.4797 56.8491C22.6155 56.7509 22.7175 56.6123 22.7714 56.4526C25.8 48.0316 36.7714 35.8188 36.7714 35.8188C40.14 32.1049 42.006 27.2483 42 22.2104Z" fill="#3F3CCD"/>
<path d="M35.05 11.65L35.8 10L33.75 9.8C34.05 10.05 34.3 10.35 34.5 10.75C34.65 11.05 34.75 11.3 34.85 11.6C34.6 11.55 34.3 11.5 34 11.5H33.8C33.4 10.6 32.55 10 31.5 10C30.1 10 29 11.1 29 12.5C29 13.55 29.6 14.4 30.5 14.8V15C30.5 16.95 32.05 18.5 34 18.5C35.95 18.5 37.5 16.95 37.5 15C37.5 13.45 36.45 12.1 35.05 11.65ZM34 17.5C32.6 17.5 31.5 16.4 31.5 15C31.5 13.6 32.6 12.5 34 12.5C35.4 12.5 36.5 13.6 36.5 15C36.5 16.4 35.4 17.5 34 17.5ZM34.25 15.1L35.7 15.95L35.3 16.55L33.5 15.5V13H34.25V15.1ZM31.5 9C31.1 9 30.7 9.1 30.3 9.2L31.5 7.5L32.7 9.2C32.3 9.1 31.9 9 31.5 9ZM28.45 14.25C28.65 14.6 28.95 14.95 29.25 15.2L27.2 15L28.1 13.1C28.15 13.5 28.25 13.9 28.45 14.25ZM28.05 11.9L27.15 10L29.25 9.85C28.95 10.1 28.7 10.4 28.45 10.75C28.25 11.1 28.1 11.5 28.05 11.9Z" fill="#FAFAFA"/>
<g clip-path="url(#clip0_27_25)">
<path d="M19 13.3333C25.4435 13.3333 30.6667 18.5565 30.6667 25C30.6667 31.4435 25.4435 36.6667 19 36.6667C12.5565 36.6667 7.33337 31.4435 7.33337 25C7.33337 18.5565 12.5565 13.3333 19 13.3333ZM20.75 19.1667H17.8334C17.2145 19.1667 16.621 19.4125 16.1835 19.8501C15.7459 20.2877 15.5 20.8812 15.5 21.5V29.6667C15.5 29.9761 15.623 30.2728 15.8417 30.4916C16.0605 30.7104 16.3573 30.8333 16.6667 30.8333C16.9761 30.8333 17.2729 30.7104 17.4917 30.4916C17.7105 30.2728 17.8334 29.9761 17.8334 29.6667V27.3333H20.75C21.833 27.3333 22.8716 26.9031 23.6374 26.1374C24.4032 25.3716 24.8334 24.333 24.8334 23.25C24.8334 22.167 24.4032 21.1284 23.6374 20.3626C22.8716 19.5969 21.833 19.1667 20.75 19.1667ZM20.75 21.5C21.2142 21.5 21.6593 21.6844 21.9875 22.0126C22.3157 22.3408 22.5 22.7859 22.5 23.25C22.5 23.7141 22.3157 24.1592 21.9875 24.4874C21.6593 24.8156 21.2142 25 20.75 25H17.8334V21.5H20.75Z" fill="#FAFAFA"/>
</g>
<defs>
<clipPath id="clip0_27_25">
<rect width="28" height="28" fill="white" transform="translate(5 11)"/>
</clipPath>
</defs>
</svg>
