<svg width="44" height="59" viewBox="0 0 44 59" fill="none" xmlns="http://www.w3.org/2000/svg">
<path d="M22 58.9999C21.4387 59.0041 20.8901 58.8317 20.4306 58.5067C19.9711 58.1817 19.6236 57.7203 19.4365 57.1867C16.567 49.2109 5.86349 37.2712 5.7487 37.1459L5.68175 37.0591C2.82659 33.8753 0.948879 29.9248 0.276313 25.6864C-0.396254 21.448 0.165212 17.104 1.89263 13.181C3.62005 9.25798 6.43922 5.92455 10.0083 3.58493C13.5773 1.24531 17.7429 0 22 0C26.2571 0 30.4227 1.24531 33.9917 3.58493C37.5608 5.92455 40.3799 9.25798 42.1074 13.181C43.8348 17.104 44.3963 21.448 43.7237 25.6864C43.0511 29.9248 41.1734 33.8753 38.3183 37.0591L38.2513 37.1459C38.1365 37.2712 27.433 49.2109 24.5635 57.1867C24.3776 57.7211 24.0304 58.1834 23.5706 58.5086C23.1109 58.8338 22.5616 59.0056 22 58.9999Z" fill="#7DD253"/>
<path d="M42 22.2104C42 16.8503 39.8929 11.7097 36.1421 7.91949C32.3914 4.1293 27.3043 2 22 2C16.6957 2 11.6086 4.1293 7.85786 7.91949C4.10714 11.7097 2 16.8503 2 22.2104C2.00015 27.2507 3.87292 32.1073 7.24761 35.8188C7.24761 35.8188 18.2286 48.0316 21.2571 56.4526C21.311 56.6123 21.413 56.7509 21.5488 56.8491C21.6846 56.9472 21.8473 57 22.0143 57C22.1812 57 22.344 56.9472 22.4797 56.8491C22.6155 56.7509 22.7175 56.6123 22.7714 56.4526C25.8 48.0316 36.7714 35.8188 36.7714 35.8188C40.14 32.1049 42.006 27.2483 42 22.2104Z" fill="#70AE52"/>
<path d="M25.5 32.6667C24.8583 32.6667 24.3088 32.438 23.8515 31.9807C23.3942 31.5233 23.1659 30.9742 23.1667 30.3333V29.1667H27.8333V30.3333C27.8333 30.975 27.6047 31.5245 27.1473 31.9818C26.69 32.4392 26.1409 32.6674 25.5 32.6667ZM18.5 32.6667C17.8583 32.6667 17.3088 32.438 16.8515 31.9807C16.3942 31.5233 16.1659 30.9742 16.1667 30.3333V28H10.1292C9.66249 28 9.32221 27.7958 9.10832 27.3875C8.89443 26.9792 8.91388 26.5806 9.16666 26.1917L12.4917 21C12.025 21 11.6944 20.7912 11.5 20.3735C11.3055 19.9558 11.3444 19.5522 11.6167 19.1625L17.5375 10.7042C17.7708 10.3736 18.0917 10.2083 18.5 10.2083C18.9083 10.2083 19.2292 10.3736 19.4625 10.7042L25.3833 19.1625C25.6555 19.5514 25.6944 19.9551 25.5 20.3735C25.3055 20.7919 24.975 21.0008 24.5083 21L27.8333 26.1917C28.0472 26.5222 28.0523 26.9064 27.8485 27.3443C27.6447 27.7822 27.3188 28.0008 26.8708 28H20.8333V30.3333C20.8333 30.975 20.6047 31.5245 20.1473 31.9818C19.69 32.4392 19.1409 32.6674 18.5 32.6667ZM28.8542 28C29.0486 27.8056 29.18 27.4797 29.2485 27.0223C29.3169 26.565 29.2341 26.152 29 25.7833L26.2292 21.4375C26.5208 21.1653 26.7055 20.7426 26.7833 20.1693C26.8611 19.5961 26.7444 19.0855 26.4333 18.6375L22.7292 13.3292L24.5375 10.7042C24.7708 10.3736 25.0917 10.2083 25.5 10.2083C25.9083 10.2083 26.2292 10.3736 26.4625 10.7042L32.3833 19.1625C32.6555 19.5514 32.6944 19.9551 32.5 20.3735C32.3055 20.7919 31.975 21.0008 31.5083 21L34.8333 26.1917C35.0861 26.5806 35.1055 26.9792 34.8917 27.3875C34.6778 27.7958 34.3375 28 33.8708 28H28.8542Z" fill="#FAFAFA"/>
</svg>
