<svg width="350" height="350" viewBox="0 0 350 350" fill="none" xmlns="http://www.w3.org/2000/svg">
<path fill-rule="evenodd" clip-rule="evenodd" d="M126.817 82.659C127.558 81.1771 129.36 80.5764 130.842 81.3174L133.208 82.5007H137H144.5C146.157 82.5007 147.5 83.8438 147.5 85.5007C147.5 87.1575 146.157 88.5007 144.5 88.5007H141.349L153.054 119.303C153.1 119.286 153.147 119.272 153.195 119.261L212.42 106.438L214.142 106.065L214.306 106.029L205.273 86.3203C204.848 85.3925 204.923 84.3123 205.473 83.4528C206.024 82.5933 206.973 82.0725 207.994 82.0703L234.236 82.0144C239.269 82.0037 244 85.4698 244 91.1941C244 96.2584 239.938 101.5 234.257 101.5H229C227.343 101.5 226 100.157 226 98.5C226 96.8431 227.343 95.5 229 95.5H234.257C236.025 95.5 238 93.5776 238 91.1941C238 89.4592 236.676 88.0092 234.249 88.0144L212.671 88.0604L226.098 117.356C230.449 115.83 235.128 115 240 115C263.196 115 282 133.804 282 157C282 180.196 263.196 199 240 199C216.804 199 198 180.196 198 157C198 140.806 207.165 126.752 220.592 119.744L216.538 110.898L215.781 111.849L177.395 160.049C179.442 161.653 180.954 163.907 181.622 166.501H185C186.657 166.501 188 167.844 188 169.501C188 171.158 186.657 172.501 185 172.501H181.622C180.29 177.676 175.592 181.501 170 181.501C163.373 181.501 158 176.128 158 169.501C158 169.183 158.012 168.868 158.037 168.556L150.831 167.383C146.386 185.81 129.792 199.5 110 199.5C86.804 199.5 68 180.696 68 157.5C68 134.304 86.804 115.5 110 115.5C122.329 115.5 133.417 120.812 141.1 129.273L148.168 123.335L134.931 88.5007H132.5C132.034 88.5007 131.575 88.3922 131.158 88.1839L128.158 86.6839C126.676 85.943 126.076 84.141 126.817 82.659ZM175.197 166.501H170C168.343 166.501 167 167.844 167 169.501C167 171.158 168.343 172.501 170 172.501H175.197C174.16 174.294 172.221 175.501 170 175.501C166.686 175.501 164 172.814 164 169.501C164 166.187 166.686 163.501 170 163.501C172.221 163.501 174.16 164.707 175.197 166.501ZM144.81 133.992L150.425 129.275L162.234 160.352C161.396 161.064 160.657 161.889 160.041 162.804L151.815 161.464C151.938 160.159 152 158.837 152 157.5C152 148.791 149.349 140.701 144.81 133.992ZM146 157.5C146 158.509 145.958 159.509 145.877 160.497L118.561 156.047L140.187 137.877C143.864 143.522 146 150.261 146 157.5ZM110 121.5C120.485 121.5 129.923 125.982 136.503 133.136L110.749 154.774L110.119 155.304L107.247 157.717L106.358 158.464C105.703 159.014 105.996 160.079 106.84 160.217L107.987 160.404L111.688 161.007L112.501 161.139L144.888 166.415C140.921 181.985 126.805 193.5 110 193.5C90.1177 193.5 74 177.382 74 157.5C74 137.618 90.1177 121.5 110 121.5ZM155.675 124.863L155.29 125.187L167.656 157.729C168.414 157.579 169.198 157.501 170 157.501C170.564 157.501 171.119 157.54 171.663 157.615L206.512 113.856L155.675 124.863ZM223.096 125.207C211.734 131.261 204 143.227 204 157C204 176.882 220.118 193 240 193C259.882 193 276 176.882 276 157C276 137.118 259.882 121 240 121C236.02 121 232.19 121.646 228.611 122.839L243.727 155.82C244.418 157.327 243.756 159.107 242.25 159.798C240.744 160.488 238.963 159.826 238.273 158.32L223.096 125.207Z" fill="#333333"/>
<path d="M60.92 235.2C60.92 232.8 61.448 230.72 62.504 228.96C63.592 227.168 65 225.792 66.728 224.832C68.488 223.84 70.392 223.344 72.44 223.344C74.04 223.344 75.48 223.552 76.76 223.968C78.04 224.384 79.192 224.96 80.216 225.696C81.272 226.4 82.184 227.2 82.952 228.096V221.376C81.544 220.224 80.024 219.344 78.392 218.736C76.76 218.128 74.712 217.824 72.248 217.824C69.784 217.824 67.48 218.24 65.336 219.072C63.224 219.904 61.384 221.104 59.816 222.672C58.248 224.24 57.016 226.096 56.12 228.24C55.256 230.352 54.824 232.672 54.824 235.2C54.824 237.728 55.256 240.064 56.12 242.208C57.016 244.32 58.248 246.16 59.816 247.728C61.384 249.296 63.224 250.496 65.336 251.328C67.48 252.16 69.784 252.576 72.248 252.576C74.712 252.576 76.76 252.272 78.392 251.664C80.024 251.056 81.544 250.176 82.952 249.024V242.304C82.184 243.2 81.272 244.016 80.216 244.752C79.192 245.456 78.04 246.016 76.76 246.432C75.48 246.848 74.04 247.056 72.44 247.056C70.392 247.056 68.488 246.576 66.728 245.616C65 244.624 63.592 243.232 62.504 241.44C61.448 239.648 60.92 237.568 60.92 235.2ZM109.036 229.92H103.468L96.5555 247.248L99.0035 247.392L91.9475 229.92H85.9955L94.8755 249.408L89.1155 262.56H94.6355L109.036 229.92ZM114.893 240.96C114.893 239.584 115.197 238.368 115.805 237.312C116.413 236.256 117.229 235.424 118.253 234.816C119.309 234.208 120.477 233.904 121.757 233.904C122.781 233.904 123.773 234.064 124.733 234.384C125.693 234.704 126.541 235.152 127.277 235.728C128.045 236.272 128.605 236.912 128.957 237.648V231.936C128.189 231.168 127.149 230.56 125.837 230.112C124.525 229.664 123.085 229.44 121.517 229.44C119.245 229.44 117.197 229.936 115.373 230.928C113.581 231.888 112.157 233.232 111.101 234.96C110.077 236.688 109.565 238.688 109.565 240.96C109.565 243.2 110.077 245.2 111.101 246.96C112.157 248.688 113.581 250.048 115.373 251.04C117.197 252 119.245 252.48 121.517 252.48C123.085 252.48 124.525 252.256 125.837 251.808C127.149 251.36 128.189 250.752 128.957 249.984V244.272C128.605 244.976 128.061 245.616 127.325 246.192C126.589 246.768 125.741 247.216 124.781 247.536C123.821 247.856 122.813 248.016 121.757 248.016C120.477 248.016 119.309 247.712 118.253 247.104C117.229 246.496 116.413 245.68 115.805 244.656C115.197 243.6 114.893 242.368 114.893 240.96ZM134.687 214.56V252H139.871V214.56H134.687ZM156.1 252.48C158.66 252.48 160.852 251.984 162.676 250.992C164.5 250 165.988 248.512 167.14 246.528L162.676 244.704C161.972 245.888 161.092 246.768 160.036 247.344C158.98 247.92 157.748 248.208 156.34 248.208C154.996 248.208 153.844 247.92 152.884 247.344C151.956 246.768 151.252 245.936 150.772 244.848C150.292 243.728 150.052 242.368 150.052 240.768C150.084 239.168 150.34 237.824 150.82 236.736C151.3 235.648 152.004 234.816 152.932 234.24C153.86 233.664 154.98 233.376 156.292 233.376C157.38 233.376 158.324 233.616 159.124 234.096C159.956 234.576 160.596 235.248 161.044 236.112C161.524 236.976 161.764 238 161.764 239.184C161.764 239.408 161.7 239.696 161.572 240.048C161.476 240.368 161.38 240.624 161.284 240.816L162.868 238.608H147.892V242.16H167.284C167.316 242.032 167.332 241.824 167.332 241.536C167.364 241.248 167.38 240.976 167.38 240.72C167.38 238.352 166.932 236.336 166.036 234.672C165.172 232.976 163.924 231.68 162.292 230.784C160.66 229.888 158.676 229.44 156.34 229.44C154.004 229.44 151.972 229.92 150.243 230.88C148.516 231.808 147.172 233.136 146.212 234.864C145.284 236.592 144.82 238.624 144.82 240.96C144.82 243.264 145.284 245.28 146.212 247.008C147.14 248.736 148.452 250.08 150.148 251.04C151.876 252 153.86 252.48 156.1 252.48ZM177.464 229.92H172.328V252H177.464V229.92ZM184.04 235.44L186.536 231.072C186.056 230.464 185.464 230.048 184.76 229.824C184.056 229.568 183.304 229.44 182.504 229.44C181.384 229.44 180.296 229.84 179.24 230.64C178.216 231.44 177.368 232.528 176.696 233.904C176.056 235.248 175.736 236.8 175.736 238.56L177.464 239.568C177.464 238.512 177.576 237.6 177.8 236.832C178.056 236.032 178.456 235.408 179 234.96C179.544 234.512 180.248 234.288 181.112 234.288C181.752 234.288 182.28 234.384 182.696 234.576C183.112 234.768 183.56 235.056 184.04 235.44ZM191.101 244.752L188.077 247.776C188.717 248.608 189.501 249.408 190.429 250.176C191.389 250.912 192.493 251.52 193.741 252C195.021 252.448 196.413 252.672 197.917 252.672C200.349 252.672 202.269 252.048 203.677 250.8C205.117 249.52 205.837 247.84 205.837 245.76C205.837 244.416 205.517 243.328 204.877 242.496C204.269 241.664 203.453 240.96 202.429 240.384C201.405 239.808 200.285 239.28 199.069 238.8C198.173 238.448 197.357 238.112 196.621 237.792C195.917 237.472 195.341 237.12 194.893 236.736C194.477 236.32 194.269 235.856 194.269 235.344C194.269 234.736 194.509 234.272 194.989 233.952C195.469 233.632 196.077 233.472 196.813 233.472C197.901 233.472 198.957 233.744 199.981 234.288C201.005 234.832 201.885 235.536 202.621 236.4L205.501 233.328C204.893 232.592 204.157 231.936 203.293 231.36C202.429 230.784 201.453 230.32 200.365 229.968C199.309 229.616 198.173 229.44 196.957 229.44C195.613 229.44 194.349 229.664 193.165 230.112C192.013 230.528 191.085 231.184 190.381 232.08C189.709 232.976 189.373 234.096 189.373 235.44C189.373 236.752 189.677 237.84 190.285 238.704C190.925 239.568 191.725 240.272 192.685 240.816C193.677 241.328 194.669 241.776 195.661 242.16C196.653 242.512 197.517 242.864 198.253 243.216C198.989 243.536 199.565 243.936 199.981 244.416C200.397 244.864 200.605 245.408 200.605 246.048C200.605 246.784 200.333 247.36 199.789 247.776C199.277 248.192 198.557 248.4 197.629 248.4C196.893 248.4 196.157 248.272 195.421 248.016C194.685 247.728 193.949 247.312 193.213 246.768C192.509 246.192 191.805 245.52 191.101 244.752ZM213.125 236.592H237.077V231.36H213.125V236.592ZM233.429 218.4V252H239.093V218.4H233.429ZM210.869 218.4V252H216.533V218.4H210.869ZM251.484 243.36V229.92H246.156V243.936C246.156 246.56 246.812 248.64 248.124 250.176C249.468 251.712 251.372 252.48 253.836 252.48C255.372 252.48 256.684 252.16 257.772 251.52C258.892 250.848 259.804 249.872 260.508 248.592V252H265.692V229.92H260.508V243.36C260.508 244.352 260.3 245.232 259.884 246C259.468 246.736 258.892 247.312 258.156 247.728C257.42 248.112 256.556 248.304 255.564 248.304C254.188 248.304 253.164 247.872 252.492 247.008C251.82 246.144 251.484 244.928 251.484 243.36ZM277.352 214.56H272.12V252H277.352V214.56ZM295.64 240.96C295.64 238.528 295.144 236.464 294.152 234.768C293.16 233.04 291.848 231.728 290.216 230.832C288.584 229.904 286.808 229.44 284.888 229.44C283.064 229.44 281.432 229.904 279.992 230.832C278.584 231.76 277.48 233.088 276.68 234.816C275.88 236.512 275.48 238.56 275.48 240.96C275.48 243.328 275.88 245.376 276.68 247.104C277.48 248.832 278.584 250.16 279.992 251.088C281.432 252.016 283.064 252.48 284.888 252.48C286.808 252.48 288.584 252.032 290.216 251.136C291.848 250.208 293.16 248.88 294.152 247.152C295.144 245.424 295.64 243.36 295.64 240.96ZM290.264 240.96C290.264 242.432 289.96 243.696 289.352 244.752C288.744 245.808 287.928 246.608 286.904 247.152C285.912 247.696 284.808 247.968 283.592 247.968C282.6 247.968 281.624 247.696 280.664 247.152C279.704 246.608 278.904 245.824 278.264 244.8C277.656 243.744 277.352 242.464 277.352 240.96C277.352 239.456 277.656 238.192 278.264 237.168C278.904 236.112 279.704 235.312 280.664 234.768C281.624 234.224 282.6 233.952 283.592 233.952C284.808 233.952 285.912 234.224 286.904 234.768C287.928 235.312 288.744 236.112 289.352 237.168C289.96 238.224 290.264 239.488 290.264 240.96Z" fill="#333333"/>
</svg>
