<svg width="350" height="200" viewBox="0 0 350 200" fill="none" xmlns="http://www.w3.org/2000/svg">
<path fill-rule="evenodd" clip-rule="evenodd" d="M126.817 42.659C127.558 41.1771 129.36 40.5764 130.842 41.3174L133.208 42.5007H137H144.5C146.157 42.5007 147.5 43.8438 147.5 45.5007C147.5 47.1575 146.157 48.5007 144.5 48.5007H141.349L153.054 79.3028C153.1 79.2856 153.147 79.2717 153.195 79.2612L212.42 66.4377L214.142 66.065L214.306 66.0293L205.273 46.3203C204.848 45.3925 204.923 44.3123 205.473 43.4528C206.024 42.5933 206.973 42.0725 207.994 42.0703L234.236 42.0144C239.269 42.0037 244 45.4698 244 51.1941C244 56.2584 239.938 61.5 234.257 61.5H229C227.343 61.5 226 60.1569 226 58.5C226 56.8431 227.343 55.5 229 55.5H234.257C236.025 55.5 238 53.5776 238 51.1941C238 49.4592 236.676 48.0092 234.249 48.0144L212.671 48.0604L226.098 77.3556C230.449 75.8297 235.128 75 240 75C263.196 75 282 93.804 282 117C282 140.196 263.196 159 240 159C216.804 159 198 140.196 198 117C198 100.806 207.165 86.7521 220.592 79.7435L216.538 70.8985L215.781 71.8491L177.395 120.049C179.442 121.653 180.954 123.907 181.622 126.501H185C186.657 126.501 188 127.844 188 129.501C188 131.158 186.657 132.501 185 132.501H181.622C180.29 137.676 175.592 141.501 170 141.501C163.373 141.501 158 136.128 158 129.501C158 129.183 158.012 128.868 158.037 128.556L150.831 127.383C146.386 145.81 129.792 159.5 110 159.5C86.804 159.5 68 140.696 68 117.5C68 94.304 86.804 75.5 110 75.5C122.329 75.5 133.417 80.8122 141.1 89.2725L148.168 83.3346L134.931 48.5007H132.5C132.034 48.5007 131.575 48.3922 131.158 48.1839L128.158 46.6839C126.676 45.943 126.076 44.141 126.817 42.659ZM175.197 126.501H170C168.343 126.501 167 127.844 167 129.501C167 131.158 168.343 132.501 170 132.501H175.197C174.16 134.294 172.221 135.501 170 135.501C166.686 135.501 164 132.814 164 129.501C164 126.187 166.686 123.501 170 123.501C172.221 123.501 174.16 124.707 175.197 126.501ZM144.81 93.9924L150.425 89.2747L162.234 120.352C161.396 121.064 160.657 121.889 160.041 122.804L151.815 121.464C151.938 120.159 152 118.837 152 117.5C152 108.791 149.349 100.701 144.81 93.9924ZM146 117.5C146 118.509 145.958 119.509 145.877 120.497L118.561 116.047L140.187 97.877C143.864 103.522 146 110.261 146 117.5ZM110 81.5C120.485 81.5 129.923 85.9825 136.503 93.1357L110.749 114.774L110.119 115.304L107.247 117.717L106.358 118.464C105.703 119.014 105.996 120.079 106.84 120.217L107.987 120.404L111.688 121.007L112.501 121.139L144.888 126.415C140.921 141.985 126.805 153.5 110 153.5C90.1177 153.5 74 137.382 74 117.5C74 97.6177 90.1177 81.5 110 81.5ZM155.675 84.8633L155.29 85.1869L167.656 117.729C168.414 117.579 169.198 117.501 170 117.501C170.564 117.501 171.119 117.54 171.663 117.615L206.512 73.8559L155.675 84.8633ZM223.096 85.2074C211.734 91.2611 204 103.227 204 117C204 136.882 220.118 153 240 153C259.882 153 276 136.882 276 117C276 97.1177 259.882 81 240 81C236.02 81 232.19 81.646 228.611 82.8388L243.727 115.82C244.418 117.327 243.756 119.107 242.25 119.798C240.744 120.488 238.963 119.826 238.273 118.32L223.096 85.2074Z" fill="#333333"/>
</svg>
