<svg width="200" height="200" viewBox="0 0 200 200" fill="none" xmlns="http://www.w3.org/2000/svg">
<g clip-path="url(#clip0_21_2)">
<rect width="200" height="200" fill="#EEEEEE"/>
<path d="M153 155.5C159.627 155.5 165.113 150.082 163.887 143.569C163.066 139.209 161.796 134.935 160.09 130.817C156.849 122.991 152.098 115.881 146.108 109.892C140.119 103.902 133.009 99.1512 125.183 95.9098C117.358 92.6683 108.97 91 100.5 91C92.0297 91 83.6424 92.6683 75.8169 95.9098C67.9914 99.1512 60.881 103.902 54.8916 109.892C48.9022 115.881 44.1512 122.991 40.9098 130.817C39.2039 134.935 37.9337 139.209 37.1131 143.569C35.8872 150.082 41.3726 155.5 48 155.5L100.5 155.5H153Z" fill="#666666"/>
<circle cx="100.5" cy="70.5" r="34.5" fill="#666666" stroke="#EEEEEE" stroke-width="4"/>
</g>
<defs>
<clipPath id="clip0_21_2">
<rect width="200" height="200" fill="white"/>
</clipPath>
</defs>
</svg>
